{"asset":{"generator":"3D Builder","version":"2.0"},"scene":0,"scenes":[{"nodes":[0]}],"nodes":[{"children":[1,2]},{"mesh":0,"matrix":[0.99999994039535522,0,0,0,0,-1.1920928244535389E-7,-0.99999982118606567,0,0,0.99999982118606567,-1.1920928244535389E-7,0,-0.53798222541809082,-5.8212549447489437E-6,0.16009747982025146,1]},{"mesh":1,"matrix":[0.99999994039535522,0,0,0,0,-1.1920928244535389E-7,-0.99999982118606567,0,0,0.99999982118606567,-1.1920928244535389E-7,0,-0.53798222541809082,-5.8212549447489437E-6,0.16009747982025146,1]}],"meshes":[{"primitives":[{"attributes":{"POSITION":0,"COLOR_0":1},"mode":4,"indices":2}]},{"primitives":[{"attributes":{"POSITION":3,"COLOR_0":4},"mode":4,"indices":5}]}],"accessors":[{"bufferView":0,"byteOffset":0,"count":34480,"componentType":5126,"type":"VEC3","min":[2.5400000325248584E-8,2.5400000325248584E-8,5.84034160056035E-6],"max":[0.38074603676795959,0.46202605962753296,1.2191550731658936]},{"bufferView":1,"byteOffset":0,"count":34480,"componentType":5121,"type":"VEC4","normalized":true},{"bufferView":2,"byteOffset":0,"count":206400,"componentType":5125,"type":"SCALAR"},{"bufferView":3,"byteOffset":0,"count":39742,"componentType":5126,"type":"VEC3","min":[1.057097315788269,2.5400000325248584E-8,5.84034160056035E-6],"max":[1.5189200639724731,0.46177205443382263,1.2191550731658936]},{"bufferView":4,"byteOffset":0,"count":39742,"componentType":5121,"type":"VEC4","normalized":true},{"bufferView":5,"byteOffset":0,"count":236532,"componentType":5125,"type":"SCALAR"}],"bufferViews":[{"buffer":0,"byteOffset":0,"byteLength":413760,"byteStride":12,"target":34962},{"buffer":0,"byteOffset":413760,"byteLength":137920,"byteStride":4,"target":34962},{"buffer":0,"byteOffset":551680,"byteLength":825600,"target":34963},{"buffer":0,"byteOffset":1377280,"byteLength":476904,"byteStride":12,"target":34962},{"buffer":0,"byteOffset":1854184,"byteLength":158968,"byteStride":4,"target":34962},{"buffer":0,"byteOffset":2013152,"byteLength":946128,"target":34963}],"buffers":[{"byteLength":2959280,"uri":"Fin-Corner-Model.bin"}]}